<svg width="31" height="31" viewBox="0 0 31 31" fill="none" xmlns="http://www.w3.org/2000/svg">
<g opacity="0.3">
<path fill-rule="evenodd" clip-rule="evenodd" d="M3.18915 21.9986C3.09893 21.9086 3.02735 21.8017 2.97852 21.684C2.92968 21.5663 2.90454 21.4401 2.90454 21.3127C2.90454 21.1853 2.92968 21.0591 2.97852 20.9414C3.02735 20.8237 3.09893 20.7168 3.18915 20.6268L14.8141 9.00185C14.9041 8.91163 15.011 8.84005 15.1287 8.79122C15.2464 8.74238 15.3726 8.71724 15.5 8.71724C15.6274 8.71724 15.7536 8.74238 15.8713 8.79122C15.989 8.84005 16.0959 8.91163 16.1859 9.00185L27.8109 20.6268C27.9928 20.8088 28.095 21.0555 28.095 21.3127C28.095 21.57 27.9928 21.8167 27.8109 21.9986C27.629 22.1805 27.3823 22.2827 27.125 22.2827C26.8678 22.2827 26.6211 22.1805 26.4391 21.9986L15.5 11.0575L4.5609 21.9986C4.47091 22.0888 4.36401 22.1604 4.24631 22.2092C4.12862 22.2581 4.00245 22.2832 3.87502 22.2832C3.7476 22.2832 3.62143 22.2581 3.50373 22.2092C3.38604 22.1604 3.27914 22.0888 3.18915 21.9986Z" fill="white"/>
</g>
</svg>
