<svg width="31" height="31" viewBox="0 0 31 31" fill="none" xmlns="http://www.w3.org/2000/svg">
<g opacity="0.3">
<path fill-rule="evenodd" clip-rule="evenodd" d="M27.8109 9.0014C27.9011 9.09139 27.9726 9.19829 28.0215 9.31599C28.0703 9.43368 28.0955 9.55985 28.0955 9.68728C28.0955 9.8147 28.0703 9.94087 28.0215 10.0586C27.9726 10.1763 27.9011 10.2832 27.8109 10.3732L16.1859 21.9982C16.0959 22.0884 15.989 22.1599 15.8713 22.2088C15.7536 22.2576 15.6274 22.2828 15.5 22.2828C15.3726 22.2828 15.2464 22.2576 15.1287 22.2088C15.011 22.1599 14.9041 22.0884 14.8141 21.9982L3.1891 10.3732C3.0072 10.1912 2.905 9.94453 2.905 9.68728C2.905 9.43003 3.0072 9.18331 3.1891 9.0014C3.37101 8.8195 3.61773 8.7173 3.87498 8.7173C4.13223 8.7173 4.37895 8.8195 4.56085 9.0014L15.5 19.9425L26.4391 9.0014C26.5291 8.91119 26.636 8.83961 26.7537 8.79077C26.8714 8.74193 26.9976 8.7168 27.125 8.7168C27.2524 8.7168 27.3786 8.74193 27.4963 8.79077C27.614 8.83961 27.7209 8.91119 27.8109 9.0014Z" fill="white"/>
</g>
</svg>
