<svg width="86" height="86" viewBox="0 0 86 86" fill="none" xmlns="http://www.w3.org/2000/svg">
<path d="M75.6653 75.6649C74.4572 76.873 72.4253 77.2826 69.6207 76.8161C66.831 76.352 63.3923 75.0369 59.5257 72.9654C51.7983 68.8257 42.4651 61.722 33.3721 52.629C24.2791 43.536 17.1754 34.2028 13.0356 26.4754C10.9642 22.6088 9.64905 19.1701 9.18504 16.3804C8.71854 13.5758 9.12807 11.5439 10.3362 10.3358C11.5443 9.12767 13.5762 8.71815 16.3808 9.18464C19.1705 9.64865 22.6092 10.9638 26.4758 13.0353C34.2032 17.175 43.5364 24.2787 52.6294 33.3717C61.7224 42.4647 68.8261 51.7979 72.9658 59.5253C75.0372 63.3919 76.3524 66.8306 76.8165 69.6203C77.283 72.4249 76.8734 74.4568 75.6653 75.6649Z" stroke="#0C0E5D"/>
<path d="M75.6649 10.3347C76.873 11.5428 77.2826 13.5747 76.8161 16.3794C76.352 19.169 75.0369 22.6077 72.9655 26.4743C68.8257 34.2018 61.722 43.5349 52.629 52.6279C43.536 61.7209 34.2028 68.8247 26.4754 72.9644C22.6088 75.0358 19.1701 76.351 16.3804 76.815C13.5758 77.2815 11.5439 76.8719 10.3358 75.6638C9.12768 74.4557 8.71815 72.4238 9.18464 69.6192C9.64865 66.8295 10.9638 63.3908 13.0353 59.5242C17.175 51.7968 24.2787 42.4636 33.3717 33.3706C42.4647 24.2776 51.7979 17.1739 59.5253 13.0342C63.3919 10.9628 66.8306 9.64756 69.6203 9.18355C72.4249 8.71705 74.4568 9.12658 75.6649 10.3347Z" stroke="#0C0E5D"/>
</svg>
