<svg width="122" height="129" viewBox="0 0 122 129" fill="none" xmlns="http://www.w3.org/2000/svg">
<path fill-rule="evenodd" clip-rule="evenodd" d="M98.0243 66.642L98.402 75.5154C98.426 76.0882 98.0127 76.7222 97.4779 76.9309L94.4484 78.1159C93.9136 78.3247 93.411 78.9532 93.3071 79.5164C93.1328 80.4649 92.9202 81.4105 92.6686 82.3509C92.521 82.9041 92.7055 83.69 93.0983 84.1115L95.3259 86.5011C95.719 86.9221 95.8209 87.6741 95.5535 88.1801L91.4175 96.0208C91.1506 96.5267 90.4726 96.8674 89.9027 96.7808L86.6729 96.2918C86.1032 96.2051 85.3502 96.4962 84.9776 96.9311C84.3435 97.6701 83.6835 98.3788 82.9993 99.0585C82.5931 99.4614 82.3578 100.232 82.4875 100.791L83.2193 103.959C83.3487 104.518 83.059 105.218 82.573 105.521L75.0365 110.22C74.5503 110.523 73.7897 110.478 73.3382 110.12L70.769 108.081C70.3178 107.721 69.5169 107.596 68.974 107.785C68.0603 108.101 67.1348 108.382 66.1993 108.628C65.6435 108.773 65.0513 109.32 64.8824 109.867L63.9204 112.979C63.7513 113.525 63.1479 113.983 62.5725 114.003L53.6615 114.297C53.086 114.316 52.4478 113.898 52.2354 113.365L51.0338 110.336C50.8217 109.802 50.1882 109.295 49.6226 109.187C48.6699 109.005 47.7205 108.785 46.7761 108.526C46.2201 108.374 45.4314 108.551 45.0094 108.938L42.6161 111.134C42.1942 111.521 41.4389 111.615 40.9297 111.345L33.0393 107.156C32.5301 106.885 32.1854 106.207 32.2697 105.641L32.7484 102.429C32.8332 101.862 32.537 101.11 32.0996 100.735C31.406 100.139 30.7379 99.522 30.0952 98.884C29.6865 98.4782 28.9104 98.2421 28.3504 98.3681L25.1729 99.0858C24.6127 99.2125 23.9078 98.9214 23.5986 98.4358C22.0031 95.9285 20.4059 93.4207 18.8103 90.9139C18.5011 90.4284 18.5391 89.6714 18.8948 89.2233L20.9193 86.6725C21.275 86.2245 21.393 85.4274 21.1995 84.8864C20.8737 83.9757 20.5832 83.0532 20.3283 82.1209C20.1769 81.5666 19.6217 80.9762 19.0707 80.8058L15.9377 79.8368C15.387 79.6664 14.9208 79.064 14.8962 78.4915C14.7708 75.533 14.6449 72.5735 14.5191 69.6161C14.4949 69.0431 14.9089 68.4095 15.4433 68.2011L18.4723 67.0159C19.0069 66.8071 19.5098 66.1792 19.6137 65.6156C19.7884 64.668 20.0004 63.7231 20.2515 62.7831C20.3992 62.2304 20.2146 61.444 19.8222 61.0222L17.5953 58.6328C17.2026 58.2115 17.1005 57.4594 17.3672 56.9534C18.746 54.3396 20.1254 51.7255 21.5041 49.1128C21.7711 48.6066 22.4494 48.2669 23.0191 48.353L26.247 48.8415C26.8167 48.9276 27.57 48.6361 27.943 48.2019C28.5773 47.4635 29.237 46.7541 29.9213 46.0746C30.3275 45.671 30.5622 44.9012 30.4328 44.3415L29.7011 41.1738C29.572 40.6143 29.8614 39.9152 30.3479 39.6116C32.8602 38.0459 35.373 36.4798 37.8853 34.9135C38.3718 34.6105 39.0806 34.7095 39.469 35.1356L47.5144 43.9546C47.9027 44.3807 47.7697 44.8521 47.2236 45.0306C40.3654 47.2689 34.3445 52.0463 30.709 58.894C23.2183 73.003 28.676 90.5679 42.8959 98.1167C57.1153 105.666 74.7227 100.347 82.2125 86.2378C85.7531 79.5689 86.4008 72.1273 84.5971 65.3383C84.4493 64.7837 84.7771 64.3812 85.351 64.4348L96.942 65.5084C97.5153 65.5619 98.0002 66.0694 98.0243 66.642Z" fill="#FFCC00" stroke="#0C0E5D"/>
<path fill-rule="evenodd" clip-rule="evenodd" d="M48.8479 97.3147C48.9547 97.0447 49.0771 96.7777 49.2145 96.5187C55.0912 85.4498 55.1119 85.4108 60.9883 74.3424C61.3755 73.613 61.8598 72.9683 62.4166 72.4153C68.0544 66.8108 69.7785 68.0856 74.6738 58.8649C80.1686 48.5152 80.6077 47.6881 86.1028 37.3379C88.037 33.6947 85.6354 34.7074 87.8213 31.3146C88.8834 29.6681 89.9459 28.0214 91.0068 26.3735C92.2775 24.4015 93.2661 24.256 95.3439 25.3592C96.3389 25.8874 94.8346 25.0887 95.83 25.6172C97.9069 26.7199 98.3403 27.6203 97.4183 29.7775C96.6485 31.5799 95.8793 33.3823 95.1103 35.1844C93.3206 39.3746 93.2693 35.8668 91.0842 39.9825C85.5891 50.3328 85.15 51.1599 79.6552 61.5096C74.7594 70.7312 76.7826 71.4448 75.2978 79.254C75.1511 80.0248 74.8889 80.7874 74.5017 81.5168L66.7899 96.0422C61.2082 98.5828 54.8299 99.1346 48.8479 97.3147Z" fill="#0C0E5D"/>
<path fill-rule="evenodd" clip-rule="evenodd" d="M82.1369 27.6451C83.5092 31.6139 83.1694 35.9983 81.2156 39.6784C76.0722 49.3662 67.919 45.1709 62.0075 56.3055C56.7776 66.1563 51.5464 76.0095 46.3161 85.861C44.3918 89.4856 44.5712 92.304 44.6066 95.0607L44.4422 94.976C39.369 92.2826 35.5363 88.1414 33.1851 83.3369C33.9997 82.4833 34.7777 81.4458 35.4861 80.1115C40.7164 70.26 45.9476 60.4067 51.1775 50.5559C57.089 39.4213 49.0453 35.0176 54.1887 25.3297C56.1425 21.6496 59.5845 18.9122 63.6401 17.8253C69.4584 16.2667 66.6691 19.1935 65.1523 22.0504C64.312 23.6332 63.4714 25.2164 62.6311 26.7992C60.6342 30.5605 60.625 30.2791 62.9101 33.9037C65.1982 37.5274 64.9446 37.3946 69.2288 37.2583C73.512 37.1217 73.2734 37.2703 75.2701 33.5094L77.7913 28.7606C79.3087 25.9024 80.169 21.9528 82.1369 27.6451Z" fill="#0C0E5D"/>
</svg>
