<svg width="20" height="26" viewBox="0 0 20 26" fill="none" xmlns="http://www.w3.org/2000/svg">
<g clip-path="url(#clip0_187_2067)">
<path d="M10.5189 6C6.92437 6 4 8.92437 4 12.5189C4 16.9798 9.8338 23.5287 10.0822 23.8053C10.3155 24.0651 10.7228 24.0647 10.9557 23.8053C11.2041 23.5287 17.0379 16.9798 17.0379 12.5189C17.0378 8.92437 14.1134 6 10.5189 6ZM10.5189 15.7987C8.71042 15.7987 7.23912 14.3274 7.23912 12.5189C7.23912 10.7104 8.71045 9.23909 10.5189 9.23909C12.3274 9.23909 13.7987 10.7104 13.7987 12.5189C13.7987 14.3274 12.3274 15.7987 10.5189 15.7987Z" fill="#0C0E5D" stroke="#0C0E5D"/>
</g>
<defs>
<clipPath id="clip0_187_2067">
<rect width="15" height="20" fill="white" transform="translate(3 5)"/>
</clipPath>
</defs>
</svg>
