<svg width="16" height="16" viewBox="0 0 16 16" fill="none" xmlns="http://www.w3.org/2000/svg">
<path d="M1.375 15.5C1.23611 15.5 1.09028 15.4964 0.9375 15.4892C0.784722 15.4819 0.638889 15.4717 0.5 15.4583V10.5833L4.66667 9.75L7.08333 12.1667C8.13889 11.5278 9.10778 10.7708 9.99 9.89583C10.8722 9.02083 11.6047 8.08333 12.1875 7.08333L9.8125 4.6875L10.5833 0.5H15.4583C15.4861 0.638889 15.5 0.784722 15.5 0.9375V1.375C15.5 3.16667 15.1008 4.91333 14.3025 6.615C13.5042 8.31667 12.4486 9.82694 11.1358 11.1458C9.82305 12.4653 8.31611 13.5208 6.615 14.3125C4.91389 15.1042 3.16722 15.5 1.375 15.5Z" fill="#0C0E5D"/>
</svg>
