<svg width="86" height="86" viewBox="0 0 86 86" fill="none" xmlns="http://www.w3.org/2000/svg">
<path d="M50.7349 15.587L63.9332 6.7426L62.8729 22.5949L62.8347 23.1653L63.4051 23.1271L79.2574 22.0668L70.413 35.2651L70.0947 35.74L70.6078 35.9922L84.8664 43L70.6078 50.0078L70.0947 50.26L70.413 50.7349L79.2574 63.9332L63.4051 62.8729L62.8347 62.8347L62.8729 63.4051L63.9332 79.2574L50.7349 70.413L50.26 70.0947L50.0078 70.6078L43 84.8664L35.9922 70.6078L35.74 70.0947L35.2651 70.413L22.0668 79.2574L23.1271 63.4051L23.1653 62.8347L22.5949 62.8729L6.7426 63.9332L15.587 50.7349L15.9053 50.26L15.3922 50.0078L1.13357 43L15.3922 35.9922L15.9053 35.74L15.587 35.2651L6.7426 22.0668L22.5949 23.1271L23.1653 23.1653L23.1271 22.5949L22.0668 6.7426L35.2651 15.587L35.74 15.9053L35.9922 15.3922L43 1.13357L50.0078 15.3922L50.26 15.9053L50.7349 15.587Z" stroke="#0C0E5D"/>
</svg>
