<svg width="25" height="23" viewBox="0 0 25 23" fill="none" xmlns="http://www.w3.org/2000/svg">
<path d="M6.89583 10.3404C8.39583 13.0525 10.8125 15.2758 13.7604 16.6558L16.0521 14.5475C16.3437 14.2792 16.75 14.2025 17.1146 14.3079C18.2812 14.6625 19.5312 14.8542 20.8333 14.8542C21.1096 14.8542 21.3746 14.9551 21.5699 15.1349C21.7653 15.3146 21.875 15.5583 21.875 15.8125V19.1667C21.875 19.4208 21.7653 19.6646 21.5699 19.8443C21.3746 20.024 21.1096 20.125 20.8333 20.125C16.1368 20.125 11.6326 18.4086 8.31165 15.3533C4.99069 12.298 3.125 8.15415 3.125 3.83333C3.125 3.57917 3.23475 3.33541 3.4301 3.15569C3.62545 2.97597 3.8904 2.875 4.16667 2.875H7.8125C8.08877 2.875 8.35372 2.97597 8.54907 3.15569C8.74442 3.33541 8.85417 3.57917 8.85417 3.83333C8.85417 5.03125 9.0625 6.18125 9.44792 7.25458C9.5625 7.59 9.47917 7.96375 9.1875 8.23208L6.89583 10.3404Z" fill="#0C0E5D"/>
</svg>
